<mxfile host="app.diagrams.net" modified="2024-03-30T15:55:06.829Z" agent="Mozilla/5.0 (Windows NT 10.0; Win64; x64) AppleWebKit/537.36 (KHTML, like Gecko) Chrome/123.0.0.0 Safari/537.36" etag="bPT8T_NNyekZLejPlFYO" version="24.2.1" type="device">
  <diagram name="Page-1" id="Mx7Iq8ttASBbPjpLBnmU">
    <mxGraphModel dx="1793" dy="975" grid="1" gridSize="10" guides="1" tooltips="1" connect="1" arrows="1" fold="1" page="1" pageScale="1" pageWidth="850" pageHeight="1100" math="0" shadow="0">
      <root>
        <mxCell id="0" />
        <mxCell id="1" parent="0" />
        <mxCell id="pWQf9mh5aRW6wcGT0CdE-1" value="" style="rounded=0;whiteSpace=wrap;html=1;fillColor=#ffffff;shadow=0;" parent="1" vertex="1">
          <mxGeometry x="240" y="130" width="820" height="400" as="geometry" />
        </mxCell>
        <mxCell id="pWQf9mh5aRW6wcGT0CdE-2" value="" style="rounded=0;whiteSpace=wrap;html=1;" parent="1" vertex="1">
          <mxGeometry x="270" y="160" width="430" height="270" as="geometry" />
        </mxCell>
        <mxCell id="pWQf9mh5aRW6wcGT0CdE-3" value="&lt;font style=&quot;font-size: 18px;&quot;&gt;Create Modules&lt;/font&gt;" style="rounded=0;whiteSpace=wrap;html=1;" parent="1" vertex="1">
          <mxGeometry x="288" y="200" width="158" height="50" as="geometry" />
        </mxCell>
        <mxCell id="pWQf9mh5aRW6wcGT0CdE-4" value="" style="shape=sumEllipse;perimeter=ellipsePerimeter;whiteSpace=wrap;html=1;backgroundOutline=1;" parent="1" vertex="1">
          <mxGeometry x="670" y="175" width="20" height="20" as="geometry" />
        </mxCell>
        <mxCell id="pWQf9mh5aRW6wcGT0CdE-5" value="&lt;font style=&quot;font-size: 15px;&quot;&gt;Content List&lt;/font&gt;" style="rounded=0;whiteSpace=wrap;html=1;align=left;" parent="1" vertex="1">
          <mxGeometry x="288" y="300" width="132" height="20" as="geometry" />
        </mxCell>
        <mxCell id="pWQf9mh5aRW6wcGT0CdE-10" value="&lt;font style=&quot;font-size: 15px;&quot;&gt;Confirm&lt;/font&gt;" style="rounded=1;whiteSpace=wrap;html=1;" parent="1" vertex="1">
          <mxGeometry x="360" y="370" width="117" height="30" as="geometry" />
        </mxCell>
        <mxCell id="pWQf9mh5aRW6wcGT0CdE-12" value="" style="verticalLabelPosition=bottom;shadow=0;dashed=0;align=center;html=1;verticalAlign=top;strokeWidth=1;shape=mxgraph.mockup.graphics.simpleIcon;strokeColor=#999999;" parent="1" vertex="1">
          <mxGeometry x="560" y="250" width="110" height="110" as="geometry" />
        </mxCell>
        <mxCell id="pWQf9mh5aRW6wcGT0CdE-24" value="&lt;font style=&quot;font-size: 15px;&quot;&gt;Select Semester&lt;/font&gt;" style="rounded=0;whiteSpace=wrap;html=1;align=left;" parent="1" vertex="1">
          <mxGeometry x="288" y="330" width="243" height="20" as="geometry" />
        </mxCell>
        <mxCell id="pWQf9mh5aRW6wcGT0CdE-25" value="&lt;font style=&quot;font-size: 15px;&quot;&gt;Module ID [Auto-generated]&lt;/font&gt;" style="rounded=0;whiteSpace=wrap;html=1;align=left;" parent="1" vertex="1">
          <mxGeometry x="288" y="270" width="243" height="20" as="geometry" />
        </mxCell>
        <mxCell id="pWQf9mh5aRW6wcGT0CdE-26" value="" style="html=1;verticalLabelPosition=bottom;labelBackgroundColor=#ffffff;verticalAlign=top;shadow=0;dashed=0;strokeWidth=2;shape=mxgraph.ios7.misc.down;strokeColor=#000000;" parent="1" vertex="1">
          <mxGeometry x="403.5" y="305.5" width="12" height="6" as="geometry" />
        </mxCell>
        <mxCell id="pWQf9mh5aRW6wcGT0CdE-27" value="" style="rounded=0;whiteSpace=wrap;html=1;" parent="1" vertex="1">
          <mxGeometry x="810" y="160" width="240" height="350" as="geometry" />
        </mxCell>
        <mxCell id="pWQf9mh5aRW6wcGT0CdE-28" value="&lt;font style=&quot;font-size: 17px;&quot;&gt;Content Preview&lt;/font&gt;" style="rounded=0;whiteSpace=wrap;html=1;" parent="1" vertex="1">
          <mxGeometry x="840" y="170" width="170" height="30" as="geometry" />
        </mxCell>
        <mxCell id="pWQf9mh5aRW6wcGT0CdE-29" value="" style="sketch=0;outlineConnect=0;fontColor=#232F3E;gradientColor=none;fillColor=#ED7100;strokeColor=none;dashed=0;verticalLabelPosition=bottom;verticalAlign=top;align=center;html=1;fontSize=12;fontStyle=0;aspect=fixed;pointerEvents=1;shape=mxgraph.aws4.container_registry_image;" parent="1" vertex="1">
          <mxGeometry x="840" y="211" width="170" height="170" as="geometry" />
        </mxCell>
        <mxCell id="pWQf9mh5aRW6wcGT0CdE-30" value="" style="shape=sumEllipse;perimeter=ellipsePerimeter;whiteSpace=wrap;html=1;backgroundOutline=1;" parent="1" vertex="1">
          <mxGeometry x="1020" y="170" width="20" height="20" as="geometry" />
        </mxCell>
        <mxCell id="pWQf9mh5aRW6wcGT0CdE-37" style="edgeStyle=orthogonalEdgeStyle;rounded=0;orthogonalLoop=1;jettySize=auto;html=1;exitX=0.5;exitY=1;exitDx=0;exitDy=0;" parent="1" source="pWQf9mh5aRW6wcGT0CdE-34" target="pWQf9mh5aRW6wcGT0CdE-27" edge="1">
          <mxGeometry relative="1" as="geometry">
            <Array as="points">
              <mxPoint x="516" y="230" />
            </Array>
          </mxGeometry>
        </mxCell>
        <mxCell id="pWQf9mh5aRW6wcGT0CdE-34" value="&lt;font style=&quot;font-size: 15px;&quot;&gt;Add&lt;/font&gt;" style="rounded=1;whiteSpace=wrap;html=1;" parent="1" vertex="1">
          <mxGeometry x="501" y="300.5" width="30" height="23" as="geometry" />
        </mxCell>
        <mxCell id="pWQf9mh5aRW6wcGT0CdE-36" value="&lt;font style=&quot;font-size: 15px;&quot;&gt;Add Lecture / Notes&lt;/font&gt;" style="rounded=1;whiteSpace=wrap;html=1;" parent="1" vertex="1">
          <mxGeometry x="840" y="420" width="170" height="40" as="geometry" />
        </mxCell>
        <mxCell id="pWQf9mh5aRW6wcGT0CdE-38" value="&lt;font style=&quot;font-size: 15px;&quot;&gt;Add media [Preview]&lt;/font&gt;" style="rounded=1;whiteSpace=wrap;html=1;" parent="1" vertex="1">
          <mxGeometry x="840" y="380" width="170" height="30" as="geometry" />
        </mxCell>
        <mxCell id="pWQf9mh5aRW6wcGT0CdE-39" value="&lt;font style=&quot;font-size: 15px;&quot;&gt;Done&lt;/font&gt;" style="rounded=1;whiteSpace=wrap;html=1;" parent="1" vertex="1">
          <mxGeometry x="885" y="470" width="80" height="30" as="geometry" />
        </mxCell>
        <mxCell id="pWQf9mh5aRW6wcGT0CdE-40" value="" style="html=1;verticalLabelPosition=bottom;labelBackgroundColor=#ffffff;verticalAlign=top;shadow=0;dashed=0;strokeWidth=2;shape=mxgraph.ios7.misc.down;strokeColor=#000000;" parent="1" vertex="1">
          <mxGeometry x="510" y="337" width="12" height="6" as="geometry" />
        </mxCell>
        <mxCell id="pWQf9mh5aRW6wcGT0CdE-43" value="&lt;font style=&quot;font-size: 15px;&quot;&gt;Request&lt;/font&gt;" style="rounded=1;whiteSpace=wrap;html=1;" parent="1" vertex="1">
          <mxGeometry x="429" y="300" width="65" height="23.5" as="geometry" />
        </mxCell>
        <mxCell id="pWQf9mh5aRW6wcGT0CdE-8" value="" style="html=1;verticalLabelPosition=bottom;labelBackgroundColor=#ffffff;verticalAlign=top;shadow=0;dashed=0;strokeWidth=2;shape=mxgraph.ios7.misc.down;strokeColor=#00080F;" parent="1" vertex="1">
          <mxGeometry x="513" y="277" width="12" height="6" as="geometry" />
        </mxCell>
      </root>
    </mxGraphModel>
  </diagram>
</mxfile>
